<svg width="18" height="24" viewBox="0 0 18 24" fill="none" xmlns="http://www.w3.org/2000/svg">
<path d="M18 7.21843L18 20.9627C18 21.3615 17.919 21.7565 17.7616 22.125C17.6042 22.4935 17.3734 22.8283 17.0826 23.1104C16.7917 23.3924 16.4464 23.6162 16.0664 23.7688C15.6864 23.9214 15.2791 24 14.8677 24H3.13226C2.72093 24 2.31362 23.9214 1.9336 23.7688C1.55357 23.6162 1.20827 23.3924 0.917417 23.1104C0.62656 22.8283 0.395839 22.4935 0.238429 22.125C0.0810179 21.7565 -2.36918e-07 21.3615 0 20.9627V3.03733C2.23754e-07 2.63846 0.0810188 2.2435 0.23843 1.87499C0.395841 1.50649 0.626562 1.17165 0.917419 0.889611C1.20828 0.607569 1.55357 0.38384 1.9336 0.231201C2.31362 0.0785609 2.72093 -1.21597e-06 3.13226 0L10.593 2.35583e-05L18 7.21843Z" fill="#2AD4FF"/>
<path d="M10.593 2.35583e-05L9.62006 3.79465C9.55532 4.04704 9.54489 4.30976 9.58944 4.56627C9.634 4.82277 9.73256 5.06751 9.87893 5.28508C10.0253 5.50264 10.2163 5.68831 10.4399 5.83041C10.6635 5.9725 10.9149 6.06794 11.1782 6.11071L18 7.21843L10.593 2.35583e-05Z" fill="#AAEEFF"/>
<path d="M7.09636 10.2461C6.84903 10.2451 6.64831 10.4453 6.64927 10.692V13.0606H5.98474C5.73745 13.0596 5.53672 13.2599 5.53766 13.5065V14.1676H3.42055C3.17322 14.1667 2.9725 14.3669 2.97347 14.6136C2.9725 14.8603 3.17322 15.0605 3.42055 15.0595H5.53766V15.7224C5.53668 15.969 5.73742 16.1693 5.98474 16.1683H6.64927V20.0187C6.65212 20.2627 6.85176 20.4587 7.09636 20.4578C7.34096 20.4587 7.54057 20.2627 7.54343 20.0187V16.1683H8.20797C8.45526 16.1693 8.65599 15.969 8.65505 15.7224V15.0595H14.5784C14.8258 15.0605 15.0265 14.8603 15.0255 14.6136C15.0265 14.3669 14.8258 14.1667 14.5784 14.1676H8.65505V13.5065C8.65603 13.2598 8.45526 13.0596 8.20797 13.0606H7.54343V10.692C7.54441 10.4453 7.34367 10.2451 7.09636 10.2461ZM6.43182 13.9525H7.76611V15.2834H6.43182C6.43193 14.8377 6.43182 14.3976 6.43182 13.9525Z" fill="white"/>
<path d="M7.54343 16.1683H8.20797C8.45526 16.1693 8.65599 15.969 8.65505 15.7224V15.0595V14.1676V13.5065C8.65603 13.2598 8.45526 13.0596 8.20797 13.0606H7.54343H6.64927H5.98474C5.73745 13.0596 5.53672 13.2599 5.53766 13.5065V14.1676V15.0595V15.7224C5.53668 15.969 5.73742 16.1693 5.98474 16.1683H6.64927H7.54343ZM6.43182 13.9525H7.76611V15.2834H6.43182C6.43193 14.8377 6.43182 14.3976 6.43182 13.9525Z" fill="#FF0000"/>
</svg>
